<svg width="29" height="30" viewBox="0 0 29 30" fill="none" xmlns="http://www.w3.org/2000/svg">
<path d="M28.9472 15.256C28.9472 18.304 28.0112 20.776 26.1392 22.672C24.2672 24.544 21.7592 25.756 18.6152 26.308V28.18C18.6152 28.444 18.5192 28.672 18.3272 28.864C18.1352 29.056 17.9072 29.152 17.6432 29.152H12.0272C11.7632 29.152 11.5352 29.056 11.3432 28.864C11.1512 28.672 11.0552 28.444 11.0552 28.18V26.272C7.95915 25.696 5.48715 24.448 3.63915 22.528C1.81515 20.608 0.903152 18.184 0.903152 15.256C0.903152 12.328 1.82715 9.964 3.67515 8.164C5.54715 6.34 8.00715 5.152 11.0552 4.6V1.936C11.0552 1.672 11.1512 1.444 11.3432 1.252C11.5352 1.06 11.7632 0.963997 12.0272 0.963997H17.6432C17.9072 0.963997 18.1352 1.06 18.3272 1.252C18.5192 1.444 18.6152 1.672 18.6152 1.936V4.6C21.7352 5.128 24.2312 6.304 26.1032 8.128C27.9992 9.952 28.9472 12.328 28.9472 15.256ZM8.28315 15.256C8.28315 17.728 9.26715 19.372 11.2352 20.188V10.684C9.26715 11.476 8.28315 13 8.28315 15.256ZM21.3872 15.292C21.3872 13.084 20.4032 11.548 18.4352 10.684V20.188C19.3472 19.852 20.0672 19.264 20.5952 18.424C21.1232 17.584 21.3872 16.54 21.3872 15.292Z" fill="#FF5C00"/>
</svg>
