<svg width="471" height="369" viewBox="0 0 471 369" fill="none" xmlns="http://www.w3.org/2000/svg">
<path d="M63 140.5C102.167 140 179.4 158.1 175 234.5C169.5 330 303.5 360 404 364" stroke="#FF5C00" stroke-width="10" stroke-dasharray="17 17"/>
<mask id="mask0_105_285" style="mask-type:alpha" maskUnits="userSpaceOnUse" x="0" y="0" width="128" height="128">
<rect width="128" height="128" fill="#D9D9D9"/>
</mask>
<g mask="url(#mask0_105_285)">
<path d="M64.0119 62.6667C66.5817 62.6667 68.7778 61.7516 70.6 59.9215C72.4222 58.0914 73.3333 55.8914 73.3333 53.3215C73.3333 50.7516 72.4183 48.5556 70.5881 46.7334C68.7581 44.9111 66.5581 44 63.9881 44C61.4183 44 59.2222 44.9151 57.4 46.7452C55.5778 48.5753 54.6667 50.7753 54.6667 53.3452C54.6667 55.9151 55.5817 58.1111 57.4119 59.9334C59.2419 61.7556 61.4419 62.6667 64.0119 62.6667ZM64 106.8C75.8222 96.0445 84.5556 86.2889 90.2 77.5334C95.8445 68.7778 98.6667 61.0667 98.6667 54.4C98.6667 43.9298 95.3204 35.3567 88.6277 28.6807C81.9352 22.0047 73.726 18.6667 64 18.6667C54.2741 18.6667 46.0648 22.0047 39.3723 28.6807C32.6797 35.3567 29.3333 43.9298 29.3333 54.4C29.3333 61.0667 32.2222 68.7778 38 77.5334C43.7778 86.2889 52.4445 96.0445 64 106.8ZM64.0667 115.733C63.4889 115.733 62.9333 115.644 62.4 115.467C61.8667 115.289 61.3778 115.022 60.9333 114.667C47.6889 103.022 37.7778 92.227 31.2 82.2808C24.6222 72.3346 21.3333 63.041 21.3333 54.4C21.3333 41.0667 25.6222 30.4445 34.2 22.5334C42.7778 14.6222 52.7111 10.6667 64 10.6667C75.2889 10.6667 85.2222 14.6222 93.8 22.5334C102.378 30.4445 106.667 41.0667 106.667 54.4C106.667 63.0222 103.378 72.3111 96.8 82.2667C90.2222 92.2222 80.3111 103.022 67.0667 114.667C66.6222 115.022 66.1556 115.289 65.6667 115.467C65.1778 115.644 64.6445 115.733 64.0667 115.733Z" fill="#FF5C00"/>
</g>
<mask id="mask1_105_285" style="mask-type:alpha" maskUnits="userSpaceOnUse" x="343" y="221" width="128" height="128">
<rect x="343" y="221" width="128" height="128" fill="#D9D9D9"/>
</mask>
<g mask="url(#mask1_105_285)">
<path d="M407.012 283.667C409.582 283.667 411.778 282.752 413.6 280.921C415.422 279.091 416.333 276.891 416.333 274.321C416.333 271.752 415.418 269.556 413.588 267.733C411.758 265.911 409.558 265 406.988 265C404.418 265 402.222 265.915 400.4 267.745C398.578 269.575 397.667 271.775 397.667 274.345C397.667 276.915 398.582 279.111 400.412 280.933C402.242 282.756 404.442 283.667 407.012 283.667ZM407.067 336.733C406.489 336.733 405.933 336.644 405.4 336.467C404.867 336.289 404.378 336.022 403.933 335.667C390.689 324.022 380.778 313.227 374.2 303.281C367.622 293.335 364.333 284.041 364.333 275.4C364.333 262.067 368.622 251.444 377.2 243.533C385.778 235.622 395.711 231.667 407 231.667C418.289 231.667 428.222 235.622 436.8 243.533C445.378 251.444 449.667 262.067 449.667 275.4C449.667 284.022 446.378 293.311 439.8 303.267C433.222 313.222 423.311 324.022 410.067 335.667C409.622 336.022 409.156 336.289 408.667 336.467C408.178 336.644 407.644 336.733 407.067 336.733Z" fill="black"/>
</g>
</svg>
